<svg xmlns="http://www.w3.org/2000/svg" width="80" height="80" viewBox="0 0 80 80">
    <g fill="none" fill-rule="evenodd">
        <path fill="#F00075" d="M0 0h80v80H0z"/>
        <path fill="#FFF" fill-rule="nonzero" d="M23.382 23.458c-2.286 2.28-3.072 5.114-3.22 8.336-.09 2.01-.626 17.202.926 21.186a10.08 10.08 0 0 0 5.82 5.806c1.268.492 2.712.824 4.832.922 17.72.802 24.29.366 27.06-6.728.492-1.262.83-2.706.924-4.82.81-17.766-.132-21.618-3.22-24.702-2.45-2.444-5.332-4.108-24.764-3.212-3.256.146-6.08.942-8.358 3.212zm4.824 31.994a6.51 6.51 0 0 1-3.776-3.766c-1.182-3.028-.79-17.406-.684-19.732.102-2.28.564-4.36 2.172-5.97 1.99-1.984 4.56-2.958 22.068-2.168 2.284.104 4.372.564 5.984 2.168C55.96 27.97 56.948 30.56 56.144 48c-.088 1.936-.412 2.986-.684 3.686-1.802 4.616-5.946 5.256-23.558 4.448-1.94-.086-2.992-.41-3.696-.682zM50.568 31.76a2.385 2.385 0 1 0 0-4.77 2.39 2.39 0 0 0-2.39 2.39 2.387 2.387 0 0 0 2.39 2.38zM32.724 47.19a10.206 10.206 0 0 0 7.222 2.98 10.206 10.206 0 0 0 10.218-10.194 10.204 10.204 0 0 0-10.22-10.192 10.204 10.204 0 0 0-10.22 10.192 10.216 10.216 0 0 0 3 7.214zm7.22-13.83a6.626 6.626 0 0 1 6.634 6.616 6.626 6.626 0 0 1-6.634 6.62 6.626 6.626 0 0 1-6.632-6.62 6.626 6.626 0 0 1 6.632-6.616z"/>
    </g>
</svg>
