<svg xmlns="http://www.w3.org/2000/svg" width="80" height="80" viewBox="0 0 80 80">
    <g fill="none" fill-rule="evenodd">
        <path fill="#4285F4" d="M0 0h80v80H0z"/>
        <path fill="#FFF" d="M40.388 43.8v-7.44H59.49c.286 1.26.51 2.44.51 4.1C60 51.88 52.184 60 40.408 60 29.143 60 20 51.04 20 40s9.143-20 20.408-20c5.51 0 10.123 1.98 13.653 5.22l-5.796 5.52c-1.47-1.36-4.04-2.96-7.857-2.96-6.755 0-12.265 5.5-12.265 12.24s5.51 12.24 12.265 12.24c7.816 0 10.694-5.3 11.225-8.44H40.388v-.02z"/>
    </g>
</svg>
