<svg xmlns="http://www.w3.org/2000/svg" width="41" height="40" viewBox="0 0 41 40">
    <path fill="#E8EEFE" fill-rule="nonzero" d="M16.537 10.123c9.716-.448 11.157.384 12.382 1.606 1.544 1.542 2.015 3.468 1.61 12.35-.047 1.058-.216 1.78-.462 2.41-1.385 3.548-4.67 3.766-13.53 3.365-1.06-.05-1.782-.215-2.416-.461a5.04 5.04 0 0 1-2.91-2.903c-.776-1.992-.508-9.588-.463-10.593.074-1.611.467-3.028 1.61-4.168 1.139-1.135 2.55-1.533 4.179-1.606zm.08 17.944c8.807.404 10.879.084 11.78-2.224.136-.35.298-.875.342-1.843.402-8.72-.092-10.015-1.087-11.008-.806-.802-1.85-1.032-2.992-1.084-8.754-.395-10.04.092-11.034 1.084-.804.805-1.035 1.845-1.086 2.985-.053 1.163-.25 8.352.342 9.866a3.255 3.255 0 0 0 1.888 1.883c.352.136.878.298 1.848.34zm8.14-13.377h-.001a1.195 1.195 0 0 1 2.39 0c0 .657-.535 1.19-1.195 1.19s-1.194-.533-1.194-1.19zm-9.227 5.298h-.001a5.102 5.102 0 0 1 5.11-5.096 5.102 5.102 0 0 1 5.11 5.096 5.103 5.103 0 0 1-5.11 5.097 5.103 5.103 0 0 1-5.11-5.097zm1.793 0a3.313 3.313 0 0 0 3.316 3.31 3.313 3.313 0 0 0 3.317-3.31 3.313 3.313 0 0 0-3.317-3.308 3.313 3.313 0 0 0-3.316 3.308zM20.667 40c-11.046 0-20-8.954-20-20s8.954-20 20-20c11.045 0 20 8.954 20 20s-8.955 20-20 20zm0-2c9.94 0 18-8.059 18-18s-8.06-18-18-18c-9.941 0-18 8.059-18 18s8.059 18 18 18z"/>
</svg>
