<svg xmlns="http://www.w3.org/2000/svg" width="20" height="20" viewBox="0 0 20 20">
    <path fill="#E8EEFE" fill-rule="nonzero" d="M10 5a2.5 2.5 0 1 1 0-5 2.5 2.5 0 0 1 0 5zM3 16h2v1c0 .46-.373 1-.833 1H1.833C1.373 18 1 17.46 1 17v-4H0V8.5C0 7.58.58 7 1.5 7H4c-.507.698-1 1.058-1 2v7zm9 4H8c-.46 0-1-.54-1-1v-5H5V9c0-1.38 1.12-2 2.5-2h5c1.38 0 2.5.62 2.5 2v5h-2v5c0 .46-.54 1-1 1zM3.5 6a1.5 1.5 0 1 1 0-3 1.5 1.5 0 0 1 0 3zm13 0a1.5 1.5 0 1 1 0-3 1.5 1.5 0 0 1 0 3zm.5 10V9c0-.942-.492-1.302-1-2h2.5c.92 0 1.5.58 1.5 1.5V13h-1v4c0 .46-.373 1-.833 1h-2.334c-.46 0-.833-.54-.833-1v-1h2z" opacity=".5"/>
</svg>
