<svg xmlns="http://www.w3.org/2000/svg" width="80" height="80" viewBox="0 0 80 80">
    <g fill="none" fill-rule="evenodd">
        <path fill="#4680C2" d="M0 0h80v80H0z"/>
        <path fill="#FFF" d="M59.059 29.665c.296-.939 0-1.622-1.314-1.622h-4.363c-1.101 0-1.61.598-1.906 1.238 0 0-2.246 5.466-5.38 9.01-1.017 1.026-1.483 1.367-2.034 1.367-.296 0-.678-.341-.678-1.28v-8.755c0-1.11-.339-1.623-1.27-1.623H35.25c-.678 0-1.102.512-1.102 1.025 0 1.068 1.568 1.324 1.737 4.313v6.491c0 1.41-.254 1.666-.805 1.666-1.482 0-5.083-5.51-7.244-11.787C27.414 28.47 26.99 28 25.888 28h-4.405C20.212 28 20 28.598 20 29.238c0 1.153 1.483 6.961 6.905 14.648 3.601 5.253 8.727 8.071 13.345 8.071 2.795 0 3.134-.64 3.134-1.708v-3.971c0-1.282.255-1.495 1.144-1.495.636 0 1.78.342 4.364 2.861C51.857 50.634 52.365 52 54.018 52h4.363c1.27 0 1.864-.64 1.525-1.879-.381-1.238-1.822-3.032-3.686-5.167-1.016-1.196-2.541-2.52-3.007-3.16-.636-.854-.466-1.196 0-1.965-.043 0 5.295-7.601 5.846-10.164"/>
    </g>
</svg>
