<svg xmlns="http://www.w3.org/2000/svg" width="40" height="40" viewBox="0 0 40 40">
    <path fill="#E8EEFE" fill-rule="nonzero" d="M17.988 22.586c1.993-1.022 3.855-1.958 5.36-2.792-1.824-.977-3.367-1.882-5.36-2.82v5.612zm11.103-8.403c1.193 1.88 1.295 10.351-.195 11.841a2.62 2.62 0 0 1-1.39.712c-5.838.44-13.612.265-15.122-.047-.54-.109-1.008-.35-1.351-.703-.265-.267-.476-.673-.64-1.235-.388-1.299-.893-9.322.718-10.817a2.655 2.655 0 0 1 1.328-.673c1.832-.349 13.266-.348 15.099 0 .623.117 1.209.47 1.553.922zM20 40C8.954 40 0 31.046 0 20S8.954 0 20 0s20 8.954 20 20-8.954 20-20 20zm0-2c9.941 0 18-8.059 18-18S29.941 2 20 2 2 10.059 2 20s8.059 18 18 18z"/>
</svg>
