<svg xmlns="http://www.w3.org/2000/svg" width="41" height="40" viewBox="0 0 41 40">
    <path fill="#E8EEFE" fill-rule="evenodd" d="M28.863 15.833c-.276 1.28-2.945 5.082-2.923 5.082-.233.384-.318.555 0 .982.233.32.995.982 1.504 1.58.932 1.067 1.652 1.964 1.842 2.583.17.62-.127.94-.762.94h-2.182c-.826 0-1.08-.683-2.563-2.178-1.292-1.26-1.864-1.43-2.182-1.43-.444 0-.571.106-.571.747v1.986c0 .533-.17.854-1.568.854-2.309 0-4.872-1.41-6.672-4.036-2.711-3.843-3.453-6.747-3.453-7.324 0-.32.106-.619.742-.619h2.203c.55 0 .762.235.974.854 1.08 3.139 2.88 5.893 3.622 5.893.275 0 .402-.128.402-.832v-3.246c-.084-1.495-.868-1.623-.868-2.157 0-.256.212-.512.55-.512h3.432c.466 0 .636.256.636.811v4.378c0 .47.19.64.338.64.276 0 .509-.17 1.017-.683 1.568-1.772 2.69-4.505 2.69-4.505.148-.32.403-.62.953-.62h2.182c.657 0 .805.342.657.812zM20.333 40c-11.045 0-20-8.954-20-20s8.955-20 20-20c11.046 0 20 8.954 20 20s-8.954 20-20 20zm0-2c9.941 0 18-8.059 18-18s-8.059-18-18-18c-9.94 0-18 8.059-18 18s8.06 18 18 18z"/>
</svg>
