<svg xmlns="http://www.w3.org/2000/svg" width="33" height="33" viewBox="0 0 33 33">
    <g fill="none" fill-rule="nonzero">
        <path fill="#62DCE0" d="M22.705 33C10.185 33 0 22.815 0 10.296c0-.163.064-.32.18-.434L3.862 6.18c.24-.24.627-.24.867 0l6.137 6.136c.24.24.24.628 0 .868l-3.248 3.248 8.95 8.95 3.248-3.248c.24-.24.628-.24.868 0l6.136 6.137c.24.24.24.628 0 .868l-3.682 3.681a.612.612 0 0 1-.433.18z"/>
        <path fill="#1B1C1E" d="M15 7c6.075 0 11 4.925 11 11h-2a9 9 0 0 0-9-9V7zm0 6a5 5 0 0 1 5 5h-2a3 3 0 0 0-3-3v-2zm0-13c9.941 0 18 8.059 18 18h-2c0-8.837-7.163-16-16-16V0z" opacity=".8"/>
    </g>
</svg>
