<svg width="180" height="51" viewBox="0 0 180 51" fill="none" xmlns="http://www.w3.org/2000/svg">
	<path d="M23.126 27.9473C23.126 30.3203 21.8809 32.2393 19.3906 33.7041C17.1201 35.0371 14.3882 35.7036 11.1948 35.7036C10.1548 35.7036 9.3125 35.689 8.66797 35.6597C8.11133 35.6304 7.07861 35.5791 5.56982 35.5059C3.88525 35.4473 2.74268 35.3301 2.14209 35.1543C1.33643 34.9199 0.933594 34.6196 0.933594 34.2534C0.933594 33.8872 1.05078 33.5869 1.28516 33.3525C1.53418 33.1768 1.88574 33.0596 2.33984 33.001L6.91016 33.2646L11.1948 33.3965C13.6997 33.4697 15.8164 33.0815 17.5449 32.2319C19.4932 31.2651 20.4673 29.8516 20.4673 27.9912C20.4673 25.8525 19.625 24.2192 17.9404 23.0913C16.7979 22.3296 15.0913 21.7729 12.8208 21.4214L9.08545 20.8501C7.1665 20.5571 5.45264 19.8174 3.94385 18.6309C2.20068 17.2832 1.3291 15.7085 1.3291 13.9067C1.3291 12.1782 2.72803 10.6694 5.52588 9.38037C7.94287 8.26709 10.5503 7.71045 13.3481 7.71045C14.7397 7.71045 16.2412 8.04004 17.8525 8.69922C19.8594 9.51953 20.8628 10.5669 20.8628 11.8413L20.9067 12.2148C20.731 12.3613 20.5845 12.4346 20.4673 12.4346C21.6538 12.4346 20.9873 12.0464 18.4678 11.27C15.9482 10.479 14.2417 10.0835 13.3481 10.0835C12.147 10.0835 10.5576 10.4131 8.58008 11.0723C5.85547 11.9805 4.49316 13.0498 4.49316 14.2803C4.49316 15.4814 5.13037 16.4922 6.40479 17.3125C7.40088 17.9424 8.58008 18.3672 9.94238 18.5869L14.8862 19.356C16.5854 19.6196 18.2188 20.2495 19.7861 21.2456C22.0127 22.6665 23.126 24.9004 23.126 27.9473ZM56.832 30.2544C56.832 30.9575 55.7188 32.1733 53.4922 33.9019C50.9434 35.8794 48.5923 36.8682 46.439 36.8682C43.6997 36.8682 41.4292 36.2529 39.6274 35.0225C38.2505 34.085 36.8589 32.2979 35.4526 29.6611C34.8228 30.8477 34.0391 31.9902 33.1016 33.0889C31.9297 34.4658 30.9263 35.1543 30.0913 35.1543C28.9927 35.1543 28.1577 34.5537 27.5864 33.3525C27.4253 33.0156 27.0957 31.7559 26.5977 29.5732L26.3999 25.75L25.9604 9.22656L25.543 6.98535C25.543 6.22363 26.041 5.74023 27.0371 5.53516C27.2861 5.53516 27.5938 5.74756 27.96 6.17236C28.3408 6.58252 28.5605 6.92676 28.6191 7.20508C28.7949 8.06934 28.8975 9.48291 28.9268 11.4458L29.0146 19.2681C29.0146 19.8833 29.0659 21.3848 29.1685 23.7725C29.2417 25.6035 29.2783 27.105 29.2783 28.2769C29.2783 30.606 29.6079 31.7705 30.2671 31.7705C31.2339 31.7705 32.2886 30.4961 33.4312 27.9473L34.0684 26.519C34.4199 25.8892 34.896 25.5742 35.4966 25.5742C36.0532 25.5742 36.5806 25.9917 37.0786 26.8267L38.0234 28.4087L40.6382 32.5396C41.9565 33.9897 43.9194 34.7148 46.5269 34.7148C48.1675 34.7148 49.8301 34.1436 51.5146 33.001L56.019 29.2656C56.4438 29.2656 56.6855 29.2949 56.7441 29.3535L56.832 30.2544ZM87.5278 30.3862C87.5278 31.104 86.3413 32.21 83.9683 33.7041C81.0679 35.5352 78.0503 36.4507 74.9155 36.4507C73.0259 36.4507 71.019 35.5059 68.895 33.6162L66.9614 31.3311C66.2729 30.5254 65.8481 29.7783 65.687 29.0898L62.8086 32.0562C61.417 33.4917 60.2524 34.2095 59.3149 34.2095C58.4067 34.2095 57.7769 33.8945 57.4253 33.2646C57.3081 33.0449 57.1689 32.6421 57.0078 32.0562C56.8906 31.6753 56.7295 30.9502 56.5244 29.8809L56.1509 27.0464L55.9751 24.2998L56.019 23.5088C56.0923 22.249 56.605 21.6191 57.5571 21.6191C57.9087 21.6191 58.2236 21.7803 58.502 22.1025C58.7656 22.4688 58.8975 23.0107 58.8975 23.7285C58.8975 26.248 59.2563 28.6284 59.9741 30.8696L60.9629 30.0786C61.124 29.9468 61.4243 29.6465 61.8638 29.1777C62.0542 28.9727 62.3691 28.6284 62.8086 28.145C62.9844 27.896 63.3286 27.4419 63.8413 26.7827L64.8301 25.5742C65.3428 24.9443 65.8994 24.6294 66.5 24.6294C67.1592 24.6294 67.8477 25.3472 68.5654 26.7827C69.7373 29.1265 70.5063 30.5254 70.8726 30.9795C71.7808 32.1221 72.3813 32.8105 72.6743 33.0449C73.48 33.7041 74.4248 34.0337 75.5088 34.0337C77.6035 34.0337 79.6543 33.521 81.6611 32.4956L86.8027 29.1777C87.125 29.1777 87.3374 29.2949 87.4399 29.5293L87.5278 30.3862ZM109.303 27.9473C109.303 30.3203 108.058 32.2393 105.567 33.7041C103.297 35.0371 100.565 35.7036 97.3716 35.7036C96.3315 35.7036 95.4893 35.689 94.8447 35.6597C94.2881 35.6304 93.2554 35.5791 91.7466 35.5059C90.062 35.4473 88.9194 35.3301 88.3188 35.1543C87.5132 34.9199 87.1104 34.6196 87.1104 34.2534C87.1104 33.8872 87.2275 33.5869 87.4619 33.3525C87.7109 33.1768 88.0625 33.0596 88.5166 33.001L93.0869 33.2646L97.3716 33.3965C99.8765 33.4697 101.993 33.0815 103.722 32.2319C105.67 31.2651 106.644 29.8516 106.644 27.9912C106.644 25.8525 105.802 24.2192 104.117 23.0913C102.975 22.3296 101.268 21.7729 98.9976 21.4214L95.2622 20.8501C93.3433 20.5571 91.6294 19.8174 90.1206 18.6309C88.3774 17.2832 87.5059 15.7085 87.5059 13.9067C87.5059 12.1782 88.9048 10.6694 91.7026 9.38037C94.1196 8.26709 96.7271 7.71045 99.5249 7.71045C100.917 7.71045 102.418 8.04004 104.029 8.69922C106.036 9.51953 107.04 10.5669 107.04 11.8413L107.083 12.2148C106.908 12.3613 106.761 12.4346 106.644 12.4346C107.831 12.4346 107.164 12.0464 104.645 11.27C102.125 10.479 100.418 10.0835 99.5249 10.0835C98.3237 10.0835 96.7344 10.4131 94.7568 11.0723C92.0322 11.9805 90.6699 13.0498 90.6699 14.2803C90.6699 15.4814 91.3071 16.4922 92.5815 17.3125C93.5776 17.9424 94.7568 18.3672 96.1191 18.5869L101.063 19.356C102.762 19.6196 104.396 20.2495 105.963 21.2456C108.189 22.6665 109.303 24.9004 109.303 27.9473ZM143.822 30.3862C143.822 31.104 142.635 32.21 140.262 33.7041C137.362 35.5352 134.344 36.4507 131.209 36.4507C129.32 36.4507 127.313 35.5059 125.189 33.6162L123.255 31.3311C122.567 30.5254 122.142 29.7783 121.981 29.0898L119.103 32.0562C117.711 33.4917 116.546 34.2095 115.609 34.2095C114.701 34.2095 114.071 33.8945 113.719 33.2646C113.602 33.0449 113.463 32.6421 113.302 32.0562C113.185 31.6753 113.023 30.9502 112.818 29.8809L112.445 27.0464L112.269 24.2998L112.313 23.5088C112.386 22.249 112.899 21.6191 113.851 21.6191C114.203 21.6191 114.518 21.7803 114.796 22.1025C115.06 22.4688 115.191 23.0107 115.191 23.7285C115.191 26.248 115.55 28.6284 116.268 30.8696L117.257 30.0786C117.418 29.9468 117.718 29.6465 118.158 29.1777C118.348 28.9727 118.663 28.6284 119.103 28.145C119.278 27.896 119.623 27.4419 120.135 26.7827L121.124 25.5742C121.637 24.9443 122.193 24.6294 122.794 24.6294C123.453 24.6294 124.142 25.3472 124.859 26.7827C126.031 29.1265 126.8 30.5254 127.167 30.9795C128.075 32.1221 128.675 32.8105 128.968 33.0449C129.774 33.7041 130.719 34.0337 131.803 34.0337C133.897 34.0337 135.948 33.521 137.955 32.4956L143.097 29.1777C143.419 29.1777 143.631 29.2949 143.734 29.5293L143.822 30.3862ZM161.576 21.7949C161.576 22.2344 161.1 22.4541 160.147 22.4541C158.478 22.4541 157.079 22.5933 155.951 22.8716C154.061 23.3403 152.596 24.2998 151.556 25.75C151.278 26.1455 150.948 27.2075 150.567 28.936L149.425 34.2095C149.015 36.0698 148.07 37 146.59 37C145.931 37 145.477 36.7437 145.228 36.231C145.111 35.9673 145.001 35.396 144.898 34.5171L144.525 31.375L144.437 28.145C144.393 26.7827 144.305 25.8013 144.173 25.2007L143.492 23.1792C143.492 22.3149 143.895 21.8828 144.701 21.8828C145.565 21.8828 146.231 22.4395 146.7 23.5527C147.052 24.4023 147.228 25.3179 147.228 26.2993V27.2881C147.228 27.5811 147.257 27.9253 147.315 28.3208L147.403 30.0347L147.909 27.9473C147.953 27.7861 148.165 27.1562 148.546 26.0576C148.824 25.252 149.117 24.666 149.425 24.2998C151.417 21.8828 154.017 20.6743 157.225 20.6743C157.972 20.6743 158.492 20.689 158.785 20.7183C159.02 20.7769 159.459 20.8794 160.104 21.0259C161.085 21.2456 161.576 21.502 161.576 21.7949ZM179.769 22.4541C179.769 23.4648 179.198 23.9336 178.055 23.8604L177.374 23.8164C176.524 23.7578 175.792 23.6699 175.177 23.5527L173.507 23.2231L168.058 23.0474L167.794 32.5835C167.75 32.9497 167.691 33.5649 167.618 34.4292L167.486 38.7139C167.442 40.0176 167.362 41.0356 167.245 41.7681C167.098 42.647 166.878 43.6064 166.585 44.6465C165.531 48.3672 164.52 50.2275 163.553 50.2275C163.114 50.2275 162.894 50.0957 162.894 49.832C162.894 49.5537 163.099 48.7993 163.509 47.5688C163.978 46.1479 164.278 45.0127 164.41 44.1631C164.645 42.625 164.769 41.3506 164.784 40.3398L164.916 34.2534L164.872 32.6274V31.1113L164.916 24.2998C164.916 23.9482 164.945 23.5601 165.003 23.1353H157.357C156.493 23.1353 156.039 22.9082 155.995 22.4541C155.995 21.7656 156.625 21.2896 157.884 21.0259L160.763 20.8062L165.003 20.6743C165.003 20.103 165.121 18.1182 165.355 14.7197C165.384 13.958 165.458 12.896 165.575 11.5337C165.677 10.9185 165.86 10.0469 166.124 8.91895C167.486 3.16211 169.288 0.283691 171.529 0.283691C172.188 0.283691 172.826 0.598633 173.441 1.22852C174.056 1.8584 174.364 2.50293 174.364 3.16211C174.364 3.87988 174.239 4.49512 173.99 5.00781C173.814 5.5498 173.485 5.8208 173.001 5.8208C172.855 5.8208 172.738 5.6377 172.65 5.27148C172.621 4.94922 172.533 4.70752 172.386 4.54639L171.705 4.23877C171.192 4.23877 170.665 4.73682 170.123 5.73291C169.435 6.97803 169.032 8.15723 168.915 9.27051L168.365 14.2803C168.365 15.3789 168.336 16.4702 168.277 17.5542L168.146 19.9932V20.4766L171.31 20.5645L173.99 20.6743C174.767 20.689 176.012 20.7329 177.726 20.8062C179.088 21.0405 179.769 21.5898 179.769 22.4541Z" fill="white"></path>
</svg>
